<?xml version="1.0" encoding="utf-8"?>
<!-- Generator: Adobe Illustrator 19.2.0, SVG Export Plug-In . SVG Version: 6.00 Build 0)  -->
<svg version="1.1" id="Layer_1" xmlns="http://www.w3.org/2000/svg" xmlns:xlink="http://www.w3.org/1999/xlink" x="0px" y="0px"
	 viewBox="0 0 283.5 120.5" style="enable-background:new 0 0 283.5 120.5;" xml:space="preserve">
<style type="text/css">
	.st0{fill:#FFF;}
</style>
<path class="st0" d="M0,1.3h7.5v24.1H37V1.3h7.5v56.1H37V31.8H7.5v25.7H0V1.3z"/>
<path class="st0" d="M85.3,57.3c-1.2,0.7-2.7,1.1-4.8,1.1c-3.5,0-5.7-1.9-5.7-6.3c-3.7,4.3-8.6,6.3-14.3,6.3
	c-7.4,0-13.4-3.3-13.4-11.4c0-9.2,6.8-11.2,13.8-12.5c7.4-1.4,13.7-0.9,13.7-6c0-5.8-4.8-6.8-9-6.8c-5.7,0-9.8,1.7-10.1,7.7h-6.7
	c0.4-10.1,8.2-13.6,17.2-13.6c7.3,0,15.2,1.6,15.2,11.2v20.9c0,3.1,0,4.6,2.1,4.6c0.6,0,1.2-0.1,2-0.4V57.3z M74.5,36.5
	c-2.6,1.9-7.6,2-12.1,2.8c-4.4,0.8-8.2,2.4-8.2,7.3c0,4.4,3.8,6,7.9,6c8.8,0,12.4-5.5,12.4-9.2V36.5z"/>
<path class="st0" d="M127.1,57.4H120l-8.3-32.3h-0.2l-8.2,32.3h-7.2l-13-40.6h7.4l9.2,33.2h0.2l8.2-33.2h7.3l8.5,33.2h0.2l9.1-33.2
	h6.9L127.1,57.4z"/>
<path class="st0" d="M142.1,1.3h6.7v33.2l18.5-17.8h9l-16.1,14.8l17.3,25.9H169l-13.9-21.2l-6.3,5.8v15.4h-6.7V1.3z"/>
<path class="st0" d="M186.4,9.5h-6.7V1.3h6.7V9.5z M179.7,16.8h6.7v40.6h-6.7V16.8z"/>
<path class="st0" d="M190.5,16.8h6.3v6.4h0.2c2.8-5,7.4-7.4,13.2-7.4c10.7,0,14,6.1,14,14.9v26.7h-6.7V29.9c0-5-3.1-8.2-8.3-8.2
	c-8.1,0-12,5.4-12,12.7v22.9h-6.7V16.8z"/>
<path class="st0" d="M233.6,44.6c0.2,6,5.4,7.9,10.9,7.9c4.2,0,9.8-0.9,9.8-6c0-5.2-6.6-6.1-13.3-7.5c-6.6-1.5-13.3-3.7-13.3-11.5
	c0-8.2,8.1-11.6,15.2-11.6c9,0,16.1,2.8,16.7,12.7h-6.7c-0.5-5.2-5-6.8-9.4-6.8c-4,0-8.6,1.1-8.6,5.2c0,4.8,7.1,5.6,13.3,7.1
	c6.7,1.5,13.3,3.7,13.3,11.6c0,9.7-9,12.8-17.3,12.8c-9.1,0-16.8-3.7-17.2-13.8H233.6z"/>
<path class="st0" d="M283.5,58.8h-5.7L254.5,0h5.7L283.5,58.8z"/>
<path class="st0" d="M0,63.4h20.4c5,0,11.5,0,14.9,2c3.7,2.2,6.6,6.2,6.6,11.7c0,6-3.1,10.5-8.3,12.6v0.2
	c6.9,1.4,10.7,6.6,10.7,13.5c0,8.3-5.9,16.1-17.1,16.1H0V63.4z M7.5,87.5h14.9c8.5,0,11.9-3.1,11.9-9c0-7.8-5.5-8.9-11.9-8.9H7.5
	V87.5z M7.5,113.2h18.7c6.4,0,10.5-3.9,10.5-10.1c0-7.3-5.9-9.4-12.2-9.4H7.5V113.2z"/>
<path class="st0" d="M47.8,78.9h6.3v8.6h0.2c3.2-6.5,7.7-9.7,14.9-9.5V85c-10.8,0-14.7,6.1-14.7,16.4v18.1h-6.7V78.9z"/>
<path class="st0" d="M87.2,78c12.9,0,19.7,9.4,19.7,21.3c0,11.9-6.8,21.2-19.7,21.2c-12.9,0-19.7-9.4-19.7-21.2
	C67.5,87.3,74.3,78,87.2,78z M87.2,114.6c7,0,12.7-5.5,12.7-15.3c0-9.9-5.7-15.4-12.7-15.4c-7,0-12.7,5.5-12.7,15.4
	C74.6,109.1,80.2,114.6,87.2,114.6z"/>
<path class="st0" d="M150.3,119.5h-7.1L135,87.2h-0.2l-8.2,32.3h-7.2l-13-40.6h7.4l9.2,33.2h0.2l8.2-33.2h7.3l8.5,33.2h0.2l9.1-33.2
	h6.9L150.3,119.5z"/>
<path class="st0" d="M166.5,78.9h6.3v6.4h0.2c2.8-5,7.4-7.4,13.2-7.4c10.7,0,14,6.1,14,14.9v26.7h-6.7V92c0-5-3.1-8.2-8.3-8.2
	c-8.1,0-12,5.4-12,12.7v22.9h-6.7V78.9z"/>
</svg>
