<svg xmlns="http://www.w3.org/2000/svg" xmlns:xlink="http://www.w3.org/1999/xlink" viewBox="0 0 34 34"><defs><clipPath id="clip-path"><rect y="12" width="10" height="10" style="fill:none"/></clipPath><clipPath id="clip-path-2"><rect x="24" width="10" height="10" style="fill:none"/></clipPath><clipPath id="clip-path-3"><rect x="24" y="12" width="10" height="10" style="fill:none"/></clipPath><clipPath id="clip-path-4"><rect x="24" y="24" width="10" height="10" style="fill:none"/></clipPath><clipPath id="clip-path-5"><rect x="12" width="10" height="10" style="fill:none"/></clipPath><clipPath id="clip-path-6"><rect x="12" y="12" width="10" height="10" style="fill:none"/></clipPath><clipPath id="clip-path-7"><rect x="12" y="24" width="10" height="10" style="fill:none"/></clipPath><clipPath id="clip-path-8"><rect y="24" width="10" height="10" style="fill:none"/></clipPath></defs><title>component-library</title><g id="Layer_2" data-name="Layer 2"><g id="Layer_1-2" data-name="Layer 1"><rect x="0.5" y="0.5" width="9" height="9" style="fill:#fff"/><rect x="0.5" y="0.5" width="9" height="9" style="fill:none;stroke:#fff"/><g style="opacity:0.5293999910354614;isolation:isolate"><g style="clip-path:url(#clip-path)"><rect x="0.5" y="12.5" width="9" height="9" style="fill:#fff"/><rect x="0.5" y="12.5" width="9" height="9" style="fill:none;stroke:#fff"/></g></g><g style="opacity:0.5293999910354614;isolation:isolate"><g style="clip-path:url(#clip-path-2)"><rect x="24.5" y="0.5" width="9" height="9" style="fill:#fff"/><rect x="24.5" y="0.5" width="9" height="9" style="fill:none;stroke:#fff"/></g></g><g style="opacity:0.5293999910354614;isolation:isolate"><g style="clip-path:url(#clip-path-3)"><rect x="24.5" y="12.5" width="9" height="9" style="fill:#fff"/><rect x="24.5" y="12.5" width="9" height="9" style="fill:none;stroke:#fff"/></g></g><g style="opacity:0.5293999910354614;isolation:isolate"><g style="clip-path:url(#clip-path-4)"><rect x="24.5" y="24.5" width="9" height="9" style="fill:#fff"/><rect x="24.5" y="24.5" width="9" height="9" style="fill:none;stroke:#fff"/></g></g><g style="opacity:0.5293999910354614;isolation:isolate"><g style="clip-path:url(#clip-path-5)"><rect x="12.5" y="0.5" width="9" height="9" style="fill:#fff"/><rect x="12.5" y="0.5" width="9" height="9" style="fill:none;stroke:#fff"/></g></g><g style="opacity:0.5293999910354614;isolation:isolate"><g style="clip-path:url(#clip-path-6)"><rect x="12.5" y="12.5" width="9" height="9" style="fill:#fff"/><rect x="12.5" y="12.5" width="9" height="9" style="fill:none;stroke:#fff"/></g></g><g style="opacity:0.5293999910354614;isolation:isolate"><g style="clip-path:url(#clip-path-7)"><rect x="12.5" y="24.5" width="9" height="9" style="fill:#fff"/><rect x="12.5" y="24.5" width="9" height="9" style="fill:none;stroke:#fff"/></g></g><g style="opacity:0.5293999910354614;isolation:isolate"><g style="clip-path:url(#clip-path-8)"><rect x="0.5" y="24.5" width="9" height="9" style="fill:#fff"/><rect x="0.5" y="24.5" width="9" height="9" style="fill:none;stroke:#fff"/></g></g></g></g></svg>