<svg xmlns="http://www.w3.org/2000/svg" viewBox="0 0 62.45 63.48"><title>compare</title><g id="Layer_2" data-name="Layer 2"><g id="Layer_1-2" data-name="Layer 1"><path d="M1357,772.33c0,17.28,13.78,31.28,30.77,31.28s30.76-14,30.76-31.28-13.77-31.28-30.76-31.28S1357,755.06,1357,772.33Z" transform="translate(-1356.53 -740.59)" style="fill:#e84610"/><path d="M1357,772.33c0,17.28,13.78,31.28,30.77,31.28s30.76-14,30.76-31.28-13.77-31.28-30.76-31.28S1357,755.06,1357,772.33Z" transform="translate(-1356.53 -740.59)" style="fill:none;stroke:#e84610;stroke-width:0.9229999780654907px"/><line x1="47.85" y1="24.2" x2="17.68" y2="24.2" style="fill:none;stroke:#fff;stroke-width:5px"/><line x1="14.14" y1="38.63" x2="44.31" y2="38.63" style="fill:none;stroke:#fff;stroke-width:5px"/><polygon points="27.09 17.5 27.09 31.37 14.14 24.48 27.09 17.5" style="fill:#fff"/><polygon points="34.91 45.33 34.91 31.46 47.84 38.35 34.91 45.33" style="fill:#fff"/></g></g></svg>