<svg xmlns="http://www.w3.org/2000/svg" viewBox="0 0 34 34"><title>project-library</title><g id="Layer_2" data-name="Layer 2"><g id="Layer_1-2" data-name="Layer 1"><rect x="0.5" y="0.5" width="9" height="9" style="fill:#707070"/><rect x="0.5" y="0.5" width="9" height="9" style="fill:none;stroke:#707070"/><rect x="0.5" y="12.5" width="9" height="9" style="fill:#707070"/><rect x="0.5" y="12.5" width="9" height="9" style="fill:none;stroke:#707070"/><rect x="0.5" y="24.5" width="9" height="9" style="fill:#707070"/><rect x="0.5" y="24.5" width="9" height="9" style="fill:none;stroke:#707070"/><rect x="24.5" y="0.5" width="9" height="9" style="fill:#707070"/><rect x="24.5" y="0.5" width="9" height="9" style="fill:none;stroke:#707070"/><rect x="24.5" y="12.5" width="9" height="9" style="fill:#707070"/><rect x="24.5" y="12.5" width="9" height="9" style="fill:none;stroke:#707070"/><rect x="24.5" y="24.5" width="9" height="9" style="fill:#707070"/><rect x="24.5" y="24.5" width="9" height="9" style="fill:none;stroke:#707070"/><rect x="12.5" y="0.5" width="9" height="9" style="fill:#707070"/><rect x="12.5" y="0.5" width="9" height="9" style="fill:none;stroke:#707070"/><rect x="12.5" y="12.5" width="9" height="9" style="fill:#707070"/><rect x="12.5" y="12.5" width="9" height="9" style="fill:none;stroke:#707070"/><rect x="12.5" y="24.5" width="9" height="9" style="fill:#707070"/><rect x="12.5" y="24.5" width="9" height="9" style="fill:none;stroke:#707070"/></g></g></svg>