<?xml version="1.0" standalone="no"?>
<!DOCTYPE svg PUBLIC "-//W3C//DTD SVG 20010904//EN"
 "http://www.w3.org/TR/2001/REC-SVG-20010904/DTD/svg10.dtd">
<svg version="1.0" xmlns="http://www.w3.org/2000/svg"
 width="284.000000pt" height="280.000000pt" viewBox="0 0 284.000000 280.000000"
 preserveAspectRatio="xMidYMid meet">
<metadata>
Created by potrace 1.15, written by Peter Selinger 2001-2017
</metadata>
<g transform="translate(0.000000,280.000000) scale(0.100000,-0.100000)"
fill="#FF501B" stroke="none">
<path d="M703 2161 c-59 -23 -120 -86 -141 -143 l-17 -48 -147 0 -148 0 0 -35
0 -35 150 0 149 0 12 -42 c17 -65 91 -133 161 -147 118 -25 214 22 265 129
l28 59 783 0 782 1 0 35 0 35 -783 0 -783 0 -18 49 c-23 64 -73 113 -142 140
-65 25 -94 25 -151 2z"/>
<path d="M1620 1619 c-24 -11 -53 -28 -64 -37 -27 -25 -64 -85 -68 -113 l-3
-24 -617 -3 -618 -2 0 -40 0 -40 620 0 c552 0 620 -2 620 -15 0 -27 38 -91 69
-118 73 -61 187 -73 268 -27 43 24 98 92 108 133 l7 27 319 0 319 0 0 40 0 40
-315 0 -315 0 -11 28 c-32 80 -69 121 -138 154 -49 23 -126 22 -181 -3z"/>
<path d="M1060 1104 c-14 -3 -46 -14 -71 -26 -48 -23 -99 -87 -113 -140 l-6
-28 -310 0 -310 0 0 -35 0 -35 306 -2 c261 -3 308 -5 315 -18 4 -8 16 -36 27
-61 25 -55 69 -91 144 -114 55 -18 59 -18 120 1 72 21 142 85 154 138 3 17 11
37 16 44 8 9 146 12 629 12 l619 0 0 35 0 35 -624 0 -623 0 -17 44 c-10 25
-26 56 -37 70 -44 56 -145 92 -219 80z"/>
</g>
</svg>
